<?xml version="1.0" encoding="UTF-8"?>
<svg version="1.1" xmlns="http://www.w3.org/2000/svg" width="200" height="200">
<path d="M0 0 C10.56 0 21.12 0 32 0 C32 1.32 32 2.64 32 4 C35.96 4 39.92 4 44 4 C44 5.32 44 6.64 44 8 C46.64 8 49.28 8 52 8 C52 9.32 52 10.64 52 12 C53.32 12 54.64 12 56 12 C56 13.32 56 14.64 56 16 C57.32 16 58.64 16 60 16 C60 17.32 60 18.64 60 20 C61.32 20 62.64 20 64 20 C64 21.32 64 22.64 64 24 C65.32 24 66.64 24 68 24 C68 25.32 68 26.64 68 28 C69.32 28 70.64 28 72 28 C72 30.64 72 33.28 72 36 C73.32 36 74.64 36 76 36 C76 39.96 76 43.92 76 48 C77.32 48 78.64 48 80 48 C80 58.56 80 69.12 80 80 C78.68 80 77.36 80 76 80 C76 83.96 76 87.92 76 92 C74.68 92 73.36 92 72 92 C72 94.64 72 97.28 72 100 C70.68 100 69.36 100 68 100 C68 101.32 68 102.64 68 104 C66.68 104 65.36 104 64 104 C64 105.32 64 106.64 64 108 C62.68 108 61.36 108 60 108 C60 109.32 60 110.64 60 112 C58.68 112 57.36 112 56 112 C56 113.32 56 114.64 56 116 C54.68 116 53.36 116 52 116 C52 117.32 52 118.64 52 120 C49.36 120 46.72 120 44 120 C44 121.32 44 122.64 44 124 C40.04 124 36.08 124 32 124 C32 125.32 32 126.64 32 128 C21.44 128 10.88 128 0 128 C0 126.68 0 125.36 0 124 C-3.96 124 -7.92 124 -12 124 C-12 122.68 -12 121.36 -12 120 C-14.64 120 -17.28 120 -20 120 C-20 118.68 -20 117.36 -20 116 C-21.32 116 -22.64 116 -24 116 C-24 114.68 -24 113.36 -24 112 C-25.32 112 -26.64 112 -28 112 C-28 110.68 -28 109.36 -28 108 C-29.32 108 -30.64 108 -32 108 C-32 106.68 -32 105.36 -32 104 C-33.32 104 -34.64 104 -36 104 C-36 102.68 -36 101.36 -36 100 C-37.32 100 -38.64 100 -40 100 C-40 97.36 -40 94.72 -40 92 C-41.32 92 -42.64 92 -44 92 C-44 88.04 -44 84.08 -44 80 C-45.32 80 -46.64 80 -48 80 C-48 69.44 -48 58.88 -48 48 C-46.68 48 -45.36 48 -44 48 C-44 44.04 -44 40.08 -44 36 C-42.68 36 -41.36 36 -40 36 C-40 33.36 -40 30.72 -40 28 C-38.68 28 -37.36 28 -36 28 C-36 26.68 -36 25.36 -36 24 C-34.68 24 -33.36 24 -32 24 C-32 22.68 -32 21.36 -32 20 C-30.68 20 -29.36 20 -28 20 C-28 18.68 -28 17.36 -28 16 C-26.68 16 -25.36 16 -24 16 C-24 14.68 -24 13.36 -24 12 C-22.68 12 -21.36 12 -20 12 C-20 10.68 -20 9.36 -20 8 C-17.36 8 -14.72 8 -12 8 C-12 6.68 -12 5.36 -12 4 C-8.04 4 -4.08 4 0 4 C0 2.68 0 1.36 0 0 Z M12 24 C12 25.32 12 26.64 12 28 C10.68 28 9.36 28 8 28 C8 43.84 8 59.68 8 76 C6.68 76 5.36 76 4 76 C4 74.68 4 73.36 4 72 C2.68 72 1.36 72 0 72 C0 70.68 0 69.36 0 68 C-1.32 68 -2.64 68 -4 68 C-4 66.68 -4 65.36 -4 64 C-5.32 64 -6.64 64 -8 64 C-8 62.68 -8 61.36 -8 60 C-9.32 60 -10.64 60 -12 60 C-12 58.68 -12 57.36 -12 56 C-14.64 56 -17.28 56 -20 56 C-20 57.32 -20 58.64 -20 60 C-21.32 60 -22.64 60 -24 60 C-24 62.64 -24 65.28 -24 68 C-22.68 68 -21.36 68 -20 68 C-20 69.32 -20 70.64 -20 72 C-18.68 72 -17.36 72 -16 72 C-16 73.32 -16 74.64 -16 76 C-14.68 76 -13.36 76 -12 76 C-12 77.32 -12 78.64 -12 80 C-10.68 80 -9.36 80 -8 80 C-8 81.32 -8 82.64 -8 84 C-6.68 84 -5.36 84 -4 84 C-4 85.32 -4 86.64 -4 88 C-2.68 88 -1.36 88 0 88 C0 89.32 0 90.64 0 92 C1.32 92 2.64 92 4 92 C4 93.32 4 94.64 4 96 C5.32 96 6.64 96 8 96 C8 97.32 8 98.64 8 100 C9.32 100 10.64 100 12 100 C12 101.32 12 102.64 12 104 C14.64 104 17.28 104 20 104 C20 102.68 20 101.36 20 100 C21.32 100 22.64 100 24 100 C24 98.68 24 97.36 24 96 C25.32 96 26.64 96 28 96 C28 94.68 28 93.36 28 92 C29.32 92 30.64 92 32 92 C32 90.68 32 89.36 32 88 C33.32 88 34.64 88 36 88 C36 86.68 36 85.36 36 84 C37.32 84 38.64 84 40 84 C40 82.68 40 81.36 40 80 C41.32 80 42.64 80 44 80 C44 78.68 44 77.36 44 76 C45.32 76 46.64 76 48 76 C48 74.68 48 73.36 48 72 C49.32 72 50.64 72 52 72 C52 70.68 52 69.36 52 68 C53.32 68 54.64 68 56 68 C56 65.36 56 62.72 56 60 C54.68 60 53.36 60 52 60 C52 58.68 52 57.36 52 56 C49.36 56 46.72 56 44 56 C44 57.32 44 58.64 44 60 C42.68 60 41.36 60 40 60 C40 61.32 40 62.64 40 64 C38.68 64 37.36 64 36 64 C36 65.32 36 66.64 36 68 C34.68 68 33.36 68 32 68 C32 69.32 32 70.64 32 72 C30.68 72 29.36 72 28 72 C28 73.32 28 74.64 28 76 C26.68 76 25.36 76 24 76 C24 60.16 24 44.32 24 28 C22.68 28 21.36 28 20 28 C20 26.68 20 25.36 20 24 C17.36 24 14.72 24 12 24 Z " fill="#000000" transform="translate(84,36)"/>
</svg>
