<?xml version="1.0" standalone="no"?>
<!DOCTYPE svg PUBLIC "-//W3C//DTD SVG 20010904//EN"
 "http://www.w3.org/TR/2001/REC-SVG-20010904/DTD/svg10.dtd">
<svg version="1.0" xmlns="http://www.w3.org/2000/svg"
 width="1024.000000pt" height="1024.000000pt" viewBox="0 0 1024.000000 1024.000000"
 preserveAspectRatio="xMidYMid meet">

<g transform="translate(0.000000,1024.000000) scale(0.100000,-0.100000)"
fill="#000000" stroke="none">
<path d="M6818 6103 c-13 -15 -14 -28 -7 -73 8 -49 57 -480 75 -652 l6 -68
-104 0 c-99 0 -105 -1 -115 -22 -6 -14 -7 -32 -2 -45 8 -22 13 -23 119 -23 98
0 110 -2 110 -17 0 -10 4 -70 10 -133 5 -63 14 -212 20 -331 12 -211 12 -216
-9 -257 -27 -53 -26 -68 4 -88 29 -19 93 -14 107 8 4 7 8 32 8 55 0 34 7 50
43 91 54 64 148 147 229 204 95 68 209 131 218 122 4 -5 17 -87 29 -183 12
-96 26 -181 33 -188 16 -20 55 -15 72 9 9 13 16 43 16 69 0 60 32 184 64 246
38 76 100 148 176 205 62 46 70 56 70 85 0 23 -7 37 -22 47 -32 21 -134 45
-274 64 l-119 17 -27 220 c-15 121 -30 249 -35 285 -8 64 -9 65 -40 68 -22 2
-35 -3 -45 -17 -16 -23 -16 -22 27 -329 14 -101 25 -191 25 -199 0 -13 -10
-15 -62 -10 -35 4 -146 14 -248 23 -102 9 -186 17 -187 18 -2 1 -14 114 -28
252 -53 523 -61 564 -104 564 -10 0 -25 -8 -33 -17z m512 -922 l165 -16 12
-80 c6 -44 12 -87 12 -96 1 -11 -33 -36 -96 -72 -115 -65 -208 -133 -314 -228
-87 -78 -89 -77 -89 29 0 37 -7 148 -15 247 -8 99 -15 195 -15 214 l0 33 88
-7 c48 -4 161 -15 252 -24z m490 -71 c12 -7 10 -10 -10 -18 -14 -6 -63 -26
-109 -46 -90 -39 -100 -38 -101 14 0 14 -3 41 -6 61 l-6 37 108 -20 c60 -11
116 -24 124 -28z m-112 -187 c-19 -28 -40 -64 -47 -81 -16 -38 -31 -42 -31 -8
0 13 -3 37 -6 54 -6 29 -3 32 52 60 33 17 60 29 62 27 2 -2 -12 -25 -30 -52z"/>
<path d="M4979 5904 c-11 -14 -9 -37 14 -148 55 -259 126 -710 113 -723 -2 -2
-28 47 -58 109 -60 125 -119 198 -159 198 -49 0 -62 -24 -89 -157 -22 -103
-40 -143 -67 -143 -45 0 -123 79 -190 190 -93 157 -239 221 -280 123 -10 -26
-12 -46 -6 -67 7 -24 5 -34 -9 -48 -13 -13 -18 -34 -18 -73 0 -128 -50 -161
-124 -82 -23 24 -56 69 -75 101 -29 49 -32 60 -22 82 19 42 13 91 -19 154 -31
61 -56 78 -88 61 -27 -14 -34 -53 -21 -106 6 -25 9 -48 6 -51 -3 -3 -24 4 -47
16 -43 22 -43 22 -69 2 -34 -25 -37 -68 -13 -168 39 -156 39 -204 -1 -204 -34
0 -138 116 -201 223 -69 118 -98 152 -155 189 -47 29 -97 36 -131 18 -28 -15
-46 -81 -30 -109 10 -20 9 -26 -9 -42 -16 -15 -20 -31 -20 -82 1 -93 -27 -140
-70 -117 -27 14 -85 82 -115 133 -15 24 -33 78 -42 118 -17 83 -27 99 -60 99
-43 0 -46 -29 -20 -152 14 -62 23 -114 22 -116 -2 -1 -25 35 -51 80 -57 99
-96 138 -136 138 -42 0 -64 -31 -89 -125 -12 -47 -30 -95 -39 -107 -32 -39
-82 -9 -172 102 l-36 44 -27 -27 -27 -27 20 -38 c25 -49 98 -125 142 -147 18
-10 51 -18 72 -18 58 0 94 42 128 145 14 45 31 84 37 86 12 4 76 -90 149 -218
53 -93 76 -107 113 -70 17 17 20 28 15 52 l-7 31 47 -36 c58 -44 99 -54 148
-34 36 16 77 76 77 114 0 12 19 -3 58 -44 88 -95 165 -116 211 -57 l20 25 47
-45 c54 -52 99 -76 144 -76 95 0 126 99 85 278 -9 40 -15 75 -13 77 2 3 20 0
40 -5 30 -9 40 -19 67 -75 67 -135 146 -205 231 -205 55 0 84 21 110 83 l22
51 21 -29 c89 -126 215 -162 248 -70 l12 32 44 -31 c62 -43 128 -44 173 -1 27
26 70 129 70 170 0 8 5 26 10 41 l11 27 24 -33 c24 -33 68 -120 141 -278 40
-87 61 -105 103 -83 26 14 36 65 27 142 -3 32 -3 59 -1 59 3 0 19 -15 36 -34
33 -38 120 -86 156 -86 48 0 90 26 109 69 16 37 34 54 34 32 0 -21 111 -120
153 -136 130 -49 185 68 129 278 -18 71 -19 78 -4 71 9 -4 39 -10 65 -14 40
-5 53 -3 73 13 21 16 32 18 66 11 36 -8 41 -13 57 -59 22 -61 62 -128 105
-173 85 -92 175 -82 229 24 l23 45 33 -44 c45 -61 86 -89 137 -95 36 -4 46 0
67 21 65 64 30 240 -71 358 -99 115 -231 102 -219 -23 2 -31 0 -52 -8 -58 -7
-6 -15 -40 -19 -76 -17 -169 -87 -162 -180 16 -33 62 -37 76 -27 97 16 35 14
76 -8 134 -34 89 -75 113 -107 64 -13 -20 -15 -39 -11 -86 6 -55 5 -59 -11
-50 -10 5 -27 29 -37 53 -37 86 -80 110 -111 63 -13 -20 -15 -39 -11 -85 l7
-60 -40 20 c-51 26 -64 25 -89 -6 -27 -34 -26 -54 5 -176 28 -111 29 -181 3
-186 -25 -5 -113 81 -168 163 -37 56 -51 86 -56 127 -12 102 -37 132 -81 103
-28 -18 -28 -21 -10 -100 33 -138 29 -227 -9 -241 -43 -17 -119 43 -190 149
-34 51 -38 64 -51 184 -29 251 -81 516 -110 560 -17 27 -56 30 -75 7z m-1557
-658 c45 -60 68 -116 68 -163 0 -58 -19 -56 -78 6 -54 55 -118 166 -102 176 5
3 10 16 10 29 0 12 3 26 6 29 11 10 63 -32 96 -77z m988 24 c44 -44 72 -94 89
-158 12 -43 7 -82 -10 -82 -21 0 -93 78 -129 139 -36 63 -38 69 -27 104 7 20
18 37 24 37 7 0 31 -18 53 -40z m2113 -10 c54 -59 80 -117 81 -179 1 -33 -4
-56 -11 -58 -19 -7 -80 62 -121 137 -39 70 -39 71 -23 105 9 19 21 34 27 35 7
0 28 -18 47 -40z"/>
<path d="M5374 5590 c-28 -11 -35 -31 -23 -74 12 -43 38 -60 72 -47 31 12 40
46 21 82 -18 35 -43 49 -70 39z"/>
</g>
</svg>
